General
Unique ID                                : 327899110543517712549184743273574260841 (0xF6AF1252A1E3EAB31D206DEC2F7D6069)
Complete name                            : BURNOUT SYNDROMES & FLOW - I Don't Wanna Die in the Paradise [WEB-DL 1080p AAC x264-SEKAI].mkv
Format                                   : Matroska
Format version                           : Version 4
File size                                : 281 MiB
Duration                                 : 3 min 35 s
Overall bit rate                         : 10.9 Mb/s
Frame rate                               : 29.970 FPS
Title                                    : BURNOUT SYNDROMES & FLOW - I Don't Wanna Die in the Paradise [WEB-DL 1080p AAC x264-SEKAI]
Encoded date                             : 2025-09-27 16:24:53 UTC
Writing application                      : mkvmerge 95.0 ('Goodbye Stranger') 64-bit
Writing library                          : libebml v1.4.5 + libmatroska v1.7.1
Website                                  : https://sekai-archivist.blogspot.com/

Video
ID                                       : 1
Format                                   : AVC
Format/Info                              : Advanced Video Codec
Format profile                           : High@L4
Format settings                          : CABAC / 5 Ref Frames
Format settings, CABAC                   : Yes
Format settings, Reference frames        : 5 frames
Format settings, Slice count             : 8 slices per frame
Codec ID                                 : V_MPEG4/ISO/AVC
Duration                                 : 3 min 35 s
Bit rate                                 : 10.7 Mb/s
Width                                    : 1 920 pixels
Height                                   : 816 pixels
Display aspect ratio                     : 2.35:1
Frame rate mode                          : Constant
Frame rate                               : 29.970 (30000/1001) FPS
Color space                              : YUV
Chroma subsampling                       : 4:2:0 (Type 2)
Bit depth                                : 8 bits
Scan type                                : Progressive
Bits/(Pixel*Frame)                       : 0.227
Stream size                              : 274 MiB (97%)
Default                                  : Yes
Forced                                   : No
Color range                              : Limited
Color primaries                          : BT.709
Transfer characteristics                 : BT.709
Matrix coefficients                      : BT.709

Audio
ID                                       : 2
Format                                   : AAC LC
Format/Info                              : Advanced Audio Codec Low Complexity
Codec ID                                 : A_AAC-2
Duration                                 : 3 min 35 s
Bit rate                                 : 277 kb/s
Channel(s)                               : 2 channels
Channel layout                           : L R
Sampling rate                            : 48.0 kHz
Frame rate                               : 46.875 FPS (1024 SPF)
Compression mode                         : Lossy
Stream size                              : 7.10 MiB (3%)
Default                                  : Yes
Forced                                   : No


